<svg width="1263" height="1198" viewBox="0 0 1263 1198" fill="none" xmlns="http://www.w3.org/2000/svg">
<g opacity="0.9">
<path d="M1117.62 967.85C1146.4 933.065 1141.66 880.57 1105.29 853.69C972.787 755.025 808.977 696.521 631.57 696.521C454.162 696.521 290.037 755.025 157.851 853.69C121.484 880.57 117.057 933.065 145.518 967.85C260.943 1107.94 435.821 1197.44 631.57 1197.44C827.319 1197.44 1001.88 1107.94 1117.62 967.85Z" fill="black"/>
<path d="M631.559 633.73C790.625 633.73 940.204 674.208 1070.81 745.361C1156.51 792.163 1262.13 728.6 1262.45 631.2C1262.45 592.936 1258.97 554.039 1251.38 514.193C1198.88 237.805 964.554 24.9791 684.37 2.21022C312.162 -28.1483 0.987793 265.001 0.987793 630.568C0.987793 631.2 0.987793 632.149 0.987793 632.781C1.30403 729.549 107.559 791.847 192.31 745.361C322.914 674.208 472.493 633.73 631.559 633.73Z" fill="black"/>
</g>
</svg>
