<svg width="28" height="28" viewBox="0 0 28 28" fill="none" xmlns="http://www.w3.org/2000/svg">
<path fill-rule="evenodd" clip-rule="evenodd" d="M18.6313 3.17279C18.973 2.83108 19.527 2.83108 19.8687 3.17279L23.9167 7.22073C24.6001 7.90415 24.6001 9.01219 23.9167 9.69561L19.8687 13.7436C19.527 14.0853 18.973 14.0853 18.6313 13.7436C18.2896 13.4018 18.2896 12.8478 18.6313 12.5061L21.8042 9.33317H4.375C3.89175 9.33317 3.5 8.94142 3.5 8.45817C3.5 7.97492 3.89175 7.58317 4.375 7.58317H21.8042L18.6313 4.41022C18.2896 4.06851 18.2896 3.51449 18.6313 3.17279ZM9.36872 14.2561C9.71043 14.5978 9.71043 15.1518 9.36872 15.4936L6.19577 18.6665H23.625C24.1083 18.6665 24.5 19.0583 24.5 19.5415C24.5 20.0248 24.1083 20.4165 23.625 20.4165H6.19577L9.36872 23.5895C9.71043 23.9312 9.71043 24.4852 9.36872 24.8269C9.02701 25.1686 8.47299 25.1686 8.13128 24.8269L4.08333 20.7789C3.39992 20.0955 3.39991 18.9875 4.08333 18.3041L8.13128 14.2561C8.47299 13.9144 9.02701 13.9144 9.36872 14.2561Z" fill="#0D0D0D"/>
</svg>
