<svg width="28" height="28" viewBox="0 0 28 28" fill="none" xmlns="http://www.w3.org/2000/svg">
<path fill-rule="evenodd" clip-rule="evenodd" d="M8.16663 13.9998C8.16663 8.84518 12.3453 4.6665 17.5 4.6665C22.6546 4.6665 26.8333 8.84518 26.8333 13.9998C26.8333 19.1545 22.6546 23.3332 17.5 23.3332C12.3453 23.3332 8.16663 19.1545 8.16663 13.9998ZM2.33329 9.0415C2.33329 8.55825 2.72504 8.1665 3.20829 8.1665H6.12496C6.60821 8.1665 6.99996 8.55825 6.99996 9.0415C6.99996 9.52475 6.60821 9.9165 6.12496 9.9165H3.20829C2.72504 9.9165 2.33329 9.52475 2.33329 9.0415ZM17.5 9.33317C17.9832 9.33317 18.375 9.72492 18.375 10.2082V13.6374L20.452 15.7145C20.7937 16.0562 20.7937 16.6102 20.452 16.9519C20.1103 17.2936 19.5563 17.2936 19.2146 16.9519L16.8812 14.6186C16.7171 14.4545 16.625 14.2319 16.625 13.9998V10.2082C16.625 9.72492 17.0167 9.33317 17.5 9.33317ZM1.16663 13.9998C1.16663 13.5166 1.55838 13.1248 2.04163 13.1248H4.95829C5.44154 13.1248 5.83329 13.5166 5.83329 13.9998C5.83329 14.4831 5.44154 14.8748 4.95829 14.8748H2.04163C1.55838 14.8748 1.16663 14.4831 1.16663 13.9998ZM2.33329 18.9582C2.33329 18.4749 2.72504 18.0832 3.20829 18.0832H6.12496C6.60821 18.0832 6.99996 18.4749 6.99996 18.9582C6.99996 19.4414 6.60821 19.8332 6.12496 19.8332H3.20829C2.72504 19.8332 2.33329 19.4414 2.33329 18.9582Z" fill="black"/>
</svg>
