<svg width="28" height="28" viewBox="0 0 28 28" fill="none" xmlns="http://www.w3.org/2000/svg">
<path d="M10.4539 4.35963L11.008 5.03685L10.4539 4.35963ZM13.052 2.61131L13.289 3.4536L13.052 2.61131ZM17.5461 4.35964L18.1002 3.68242L18.1002 3.68242L17.5461 4.35964ZM14.948 2.61131L14.711 3.4536L14.948 2.61131ZM6.28603 23.2434L5.88879 24.0231L5.88879 24.0231L6.28603 23.2434ZM4.375 18.0249H5.25H4.375ZM4.75648 21.7139L3.97685 22.1111L3.97685 22.1111L4.75648 21.7139ZM23.2435 21.7139L24.0232 22.1111L24.0232 22.1111L23.2435 21.7139ZM21.714 23.2434L22.1112 24.0231L22.1112 24.0231L21.714 23.2434ZM23.5023 10.0734L22.658 10.303L22.658 10.303L23.5023 10.0734ZM21.5711 7.65282L21.0171 8.33003L21.0171 8.33003L21.5711 7.65282ZM22.9745 8.9595L22.2621 9.46758L22.2621 9.46758L22.9745 8.9595ZM4.375 11.987H3.5H4.375ZM4.49765 10.0734L5.34199 10.303L5.34199 10.303L4.49765 10.0734ZM6.42887 7.65282L6.98295 8.33003L6.42887 7.65282ZM5.0255 8.9595L5.73788 9.46758L5.73788 9.46758L5.0255 8.9595ZM9.04167 18.0833C8.55842 18.0833 8.16667 18.475 8.16667 18.9583C8.16667 19.4415 8.55842 19.8333 9.04167 19.8333V18.9583V18.0833ZM18.9583 19.8333C19.4416 19.8333 19.8333 19.4415 19.8333 18.9583C19.8333 18.475 19.4416 18.0833 18.9583 18.0833V18.9583V19.8333ZM23.625 11.987H22.75V18.0249H23.625H24.5V11.987H23.625ZM18.025 23.6249V22.7499H9.975V23.6249V24.4999H18.025V23.6249ZM4.375 18.0249H5.25V11.987H4.375H3.5V18.0249H4.375ZM6.42887 7.65282L6.98295 8.33003L11.008 5.03685L10.4539 4.35963L9.89979 3.68242L5.87479 6.97561L6.42887 7.65282ZM17.5461 4.35964L16.9921 5.03685L21.0171 8.33003L21.5711 7.65282L22.1252 6.97561L18.1002 3.68242L17.5461 4.35964ZM10.4539 4.35963L11.008 5.03685C11.6496 4.51186 12.0945 4.1486 12.4655 3.88841C12.8274 3.63455 13.0694 3.51539 13.289 3.4536L13.052 2.61131L12.815 1.76902C12.3315 1.90505 11.9061 2.14322 11.4606 2.45565C11.0242 2.76175 10.5215 3.17374 9.89979 3.68242L10.4539 4.35963ZM17.5461 4.35964L18.1002 3.68242C17.4785 3.17374 16.9758 2.76175 16.5394 2.45565C16.0939 2.14322 15.6685 1.90505 15.185 1.76902L14.948 2.61131L14.711 3.4536C14.9306 3.51539 15.1726 3.63455 15.5345 3.88841C15.9055 4.1486 16.3504 4.51186 16.9921 5.03685L17.5461 4.35964ZM13.052 2.61131L13.289 3.4536C13.754 3.32276 14.246 3.32276 14.711 3.4536L14.948 2.61131L15.185 1.76902C14.4101 1.55095 13.5899 1.55095 12.815 1.76902L13.052 2.61131ZM9.975 23.6249V22.7499C8.98047 22.7499 8.2872 22.7492 7.74746 22.7051C7.21794 22.6619 6.91371 22.5812 6.68328 22.4638L6.28603 23.2434L5.88879 24.0231C6.40705 24.2871 6.96721 24.3972 7.60495 24.4493C8.23248 24.5006 9.00935 24.4999 9.975 24.4999V23.6249ZM4.375 18.0249L3.5 18.0249C3.5 18.9906 3.49932 19.7674 3.55059 20.395C3.6027 21.0327 3.71278 21.5929 3.97685 22.1111L4.75648 21.7139L5.53611 21.3166C5.41869 21.0862 5.33804 20.782 5.29478 20.2525C5.25068 19.7127 5.25 19.0195 5.25 18.0249L4.375 18.0249ZM6.28603 23.2434L6.68328 22.4638C6.18935 22.2121 5.78778 21.8106 5.53611 21.3166L4.75648 21.7139L3.97685 22.1111C4.39629 22.9343 5.06558 23.6036 5.88879 24.0231L6.28603 23.2434ZM23.625 18.0249H22.75C22.75 19.0195 22.7493 19.7127 22.7052 20.2525C22.662 20.782 22.5813 21.0862 22.4639 21.3166L23.2435 21.7139L24.0232 22.1111C24.2872 21.5929 24.3973 21.0327 24.4494 20.395C24.5007 19.7674 24.5 18.9906 24.5 18.0249H23.625ZM18.025 23.6249V24.4999C18.9907 24.4999 19.7675 24.5006 20.395 24.4493C21.0328 24.3972 21.593 24.2871 22.1112 24.0231L21.714 23.2434L21.3167 22.4638C21.0863 22.5812 20.7821 22.6619 20.2525 22.7051C19.7128 22.7492 19.0195 22.7499 18.025 22.7499V23.6249ZM23.2435 21.7139L22.4639 21.3166C22.2122 21.8106 21.8107 22.2121 21.3167 22.4638L21.714 23.2434L22.1112 24.0231C22.9344 23.6036 23.6037 22.9343 24.0232 22.1111L23.2435 21.7139ZM23.625 11.987H24.5C24.5 11.0599 24.5072 10.434 24.3467 9.84378L23.5023 10.0734L22.658 10.303C22.7428 10.6149 22.75 10.964 22.75 11.987H23.625ZM21.5711 7.65282L21.0171 8.33003C21.8088 8.97782 22.0745 9.20447 22.2621 9.46758L22.9745 8.9595L23.6869 8.45142C23.3317 7.95346 22.8428 7.56268 22.1252 6.97561L21.5711 7.65282ZM23.5023 10.0734L24.3467 9.84378C24.2108 9.34428 23.9874 8.87285 23.6869 8.45142L22.9745 8.9595L22.2621 9.46758C22.4425 9.72044 22.5765 10.0033 22.658 10.303L23.5023 10.0734ZM4.375 11.987L5.25 11.987C5.25 10.964 5.25718 10.6149 5.34199 10.303L4.49765 10.0734L3.65332 9.84378C3.49282 10.434 3.5 11.0599 3.5 11.987L4.375 11.987ZM6.42887 7.65282L5.87479 6.97561C5.15725 7.56268 4.66829 7.95346 4.31313 8.45142L5.0255 8.9595L5.73788 9.46758C5.92554 9.20447 6.19121 8.97782 6.98295 8.33003L6.42887 7.65282ZM4.49765 10.0734L5.34199 10.303C5.42349 10.0033 5.55753 9.72044 5.73788 9.46758L5.0255 8.9595L4.31313 8.45142C4.01255 8.87285 3.78915 9.34428 3.65332 9.84378L4.49765 10.0734ZM9.04167 18.9583V19.8333H18.9583V18.9583V18.0833H9.04167V18.9583Z" fill="black"/>
</svg>
