<svg width="28" height="28" viewBox="0 0 28 28" fill="none" xmlns="http://www.w3.org/2000/svg">
<path fill-rule="evenodd" clip-rule="evenodd" d="M16.7704 2.59441C15.1588 1.27582 12.8412 1.27582 11.2296 2.5944L5.10458 7.60577C4.08899 8.43671 3.5 9.67963 3.5 10.9918V20.1249C3.5 22.5412 5.45875 24.4999 7.875 24.4999H20.125C22.5412 24.4999 24.5 22.5412 24.5 20.1249V10.9918C24.5 9.67963 23.911 8.43671 22.8954 7.60577L16.7704 2.59441ZM9.04167 18.0833C8.55842 18.0833 8.16667 18.475 8.16667 18.9583C8.16667 19.4415 8.55842 19.8333 9.04167 19.8333H18.9583C19.4416 19.8333 19.8333 19.4415 19.8333 18.9583C19.8333 18.475 19.4416 18.0833 18.9583 18.0833H9.04167Z" fill="#0D0D0D"/>
</svg>
