<svg width="397" height="112" viewBox="0 0 397 112" fill="none" xmlns="http://www.w3.org/2000/svg">
<path d="M336.827 93.0773C335.905 93.0455 335.103 92.8231 334.42 92.41C333.737 91.997 333.212 91.4727 332.847 90.8372C332.497 90.1858 332.323 89.5106 332.323 88.8115C332.323 88.0648 332.529 87.3737 332.942 86.7382C333.371 86.0868 333.991 85.5863 334.801 85.2368C336.358 84.6649 337.478 84.0611 338.161 83.4256C338.844 82.7901 339.313 81.821 339.567 80.5182C339.837 79.1995 340.004 77.1183 340.068 74.2744C340.099 73.0034 340.115 71.1207 340.115 68.6264C340.115 65.846 340.092 63.0975 340.044 60.3807C340.012 58.4107 339.853 56.9331 339.567 55.9481C339.297 54.9472 338.844 54.1528 338.209 53.5649C337.589 52.9771 336.557 52.2622 335.111 51.4201C334.364 50.9594 333.8 50.4192 333.419 49.7996C333.053 49.18 332.871 48.5286 332.871 47.8454C332.871 47.051 333.117 46.3043 333.609 45.6053C334.102 44.8903 334.801 44.3104 335.707 43.8656C337.327 43.103 339.138 42.2292 341.14 41.2441L345.525 39.1231C346.574 38.6465 347.479 38.4082 348.242 38.4082C349.608 38.4082 350.585 39.1231 351.173 40.553C351.967 42.2053 353.103 43.0315 354.581 43.0315C355.502 43.0315 356.615 42.6978 357.917 42.0306C359.919 40.982 361.937 40.1956 363.971 39.6713C366.02 39.1311 368.006 38.861 369.928 38.861C372.883 38.861 375.537 39.4647 377.888 40.6722C380.255 41.8796 382.114 43.667 383.465 46.0342C384.815 48.4015 385.466 51.2533 385.419 54.5897C385.339 60.0232 385.3 64.1699 385.3 67.0297C385.3 69.2063 385.323 71.5735 385.371 74.1314C385.419 77.0865 385.554 79.2075 385.776 80.4944C385.999 81.7654 386.451 82.7266 387.135 83.378C387.818 84.0135 388.986 84.6331 390.638 85.2368C391.48 85.5863 392.107 86.0789 392.521 86.7144C392.949 87.334 393.164 88.0171 393.164 88.7639C393.164 89.4629 392.973 90.1381 392.592 90.7895C392.227 91.4409 391.694 91.9731 390.995 92.3862C390.312 92.8152 389.51 93.0455 388.588 93.0773C384.712 93.1409 381.542 93.1727 379.08 93.1727C376.681 93.1727 373.416 93.1409 369.285 93.0773C368.379 93.0455 367.585 92.8231 366.902 92.41C366.219 91.997 365.694 91.4647 365.329 90.8133C364.964 90.1461 364.781 89.455 364.781 88.74C364.781 87.9774 365.003 87.2704 365.448 86.619C365.893 85.9518 366.552 85.4433 367.426 85.0938C368.967 84.5536 370.055 83.9896 370.691 83.4018C371.326 82.814 371.763 81.8686 372.002 80.5659C372.256 79.2472 372.415 77.0706 372.478 74.0361C372.526 71.5576 372.55 68.8647 372.55 65.9572C372.55 63.0339 372.526 60.1583 372.478 57.3303C372.431 55.4715 372.026 53.843 371.263 52.4449C370.5 51.0309 369.476 49.9505 368.189 49.2038C366.902 48.4571 365.488 48.0837 363.947 48.0837C361.754 48.0837 359.609 48.8066 357.512 50.2524C354.637 52.2066 353.135 55.678 353.008 60.6667C352.96 63.1928 352.937 65.5759 352.937 67.8161C352.937 70.0721 352.96 72.1772 353.008 74.1314C353.103 77.1659 353.27 79.3266 353.509 80.6135C353.763 81.8845 354.224 82.8298 354.891 83.4495C355.558 84.0532 356.726 84.6728 358.394 85.3083C359.173 85.6578 359.76 86.1345 360.158 86.7382C360.555 87.3419 360.753 88.0092 360.753 88.74C360.753 89.4391 360.571 90.1143 360.205 90.7657C359.84 91.4171 359.308 91.9573 358.609 92.3862C357.925 92.8152 357.123 93.0455 356.202 93.0773C351.975 93.1409 348.75 93.1727 346.526 93.1727C344.318 93.1727 341.085 93.1409 336.827 93.0773Z" fill="#0D0D0D"/>
<path d="M306.44 90.7437C303.151 81.7673 299.91 73.2118 296.716 65.0774C296.494 64.5213 296.176 64.1003 295.763 63.8143C295.366 63.5125 294.929 63.3615 294.452 63.3615C293.928 63.3615 293.436 63.5363 292.975 63.8858C292.514 64.2353 292.165 64.7199 291.926 65.3395L290.925 68.0086C289.718 71.3132 288.55 74.4669 287.422 77.4697C285.897 81.521 284.284 85.8504 282.584 90.4578C282.076 91.7764 281.353 92.7853 280.416 93.4843C279.478 94.1834 278.47 94.5329 277.389 94.5329C276.309 94.5329 275.308 94.1834 274.386 93.4843C273.465 92.7853 272.782 91.8003 272.337 90.5293C267.825 77.3902 263.511 65.3792 259.396 54.4963C258.84 53.0505 258.324 51.9463 257.847 51.1837C257.371 50.4211 256.839 49.8412 256.251 49.444C255.679 49.0468 254.884 48.6814 253.868 48.3478C252.755 47.9982 251.913 47.4342 251.341 46.6557C250.754 45.8772 250.46 45.0273 250.46 44.1058C250.46 43.375 250.658 42.6838 251.056 42.0325C251.437 41.3811 252.001 40.8568 252.748 40.4596C253.51 40.0624 254.416 39.8717 255.464 39.8876C259.563 39.9194 262.685 39.9353 264.83 39.9353C266.959 39.9353 270.136 39.9194 274.363 39.8876C275.284 39.8876 276.078 40.0783 276.746 40.4596C277.429 40.8409 277.945 41.3413 278.295 41.961C278.644 42.5806 278.819 43.2399 278.819 43.939C278.819 44.7651 278.573 45.5357 278.08 46.2506C277.604 46.9655 276.905 47.5057 275.983 47.8711C273.759 48.7608 272.647 50.1987 272.647 52.1846C272.647 52.9631 272.821 53.8608 273.171 54.8776L277.651 67.5082C277.89 68.1755 278.223 68.6918 278.652 69.0572C279.081 69.4226 279.55 69.6053 280.058 69.6053C280.551 69.6053 281.012 69.4226 281.44 69.0572C281.885 68.6918 282.243 68.1675 282.513 67.4843C282.608 67.246 283.244 65.5461 284.419 62.3844C285.436 59.5723 286.167 57.5943 286.612 56.4504C287.549 53.9402 288.669 50.8183 289.972 47.0847C290.21 46.3698 290.584 45.2974 291.092 43.8675C291.537 42.6124 292.252 41.6432 293.237 40.96C294.222 40.2769 295.302 39.9353 296.478 39.9353C297.638 39.9353 298.702 40.261 299.671 40.9124C300.656 41.5638 301.379 42.5011 301.84 43.7245C305.192 52.6215 308.219 60.5415 310.92 67.4843C311.19 68.1516 311.524 68.66 311.921 69.0095C312.318 69.3591 312.739 69.5338 313.184 69.5338C313.66 69.5338 314.105 69.3432 314.518 68.9619C314.931 68.5806 315.257 68.0325 315.495 67.3175C316.067 65.6334 316.727 63.5839 317.473 61.169C318.236 58.7541 318.88 56.6252 319.404 54.7822C319.674 53.829 319.809 52.9949 319.809 52.2799C319.809 51.3108 319.539 50.5005 318.999 49.8491C318.474 49.1819 317.624 48.6099 316.449 48.1333C315.448 47.7361 314.685 47.1721 314.161 46.4413C313.653 45.7104 313.398 44.924 313.398 44.082C313.398 43.367 313.581 42.6918 313.946 42.0563C314.328 41.4049 314.868 40.8806 315.567 40.4834C316.266 40.0862 317.084 39.8876 318.022 39.8876H327.769H332.892C333.909 39.8876 334.767 40.0783 335.466 40.4596C336.181 40.825 336.713 41.3175 337.063 41.9371C337.412 42.5409 337.587 43.2002 337.587 43.9151C337.587 44.9319 337.238 45.8693 336.539 46.7272C335.855 47.5852 334.902 48.1412 333.679 48.3954C332.678 48.602 331.899 48.8641 331.343 49.1819C330.803 49.4837 330.374 49.8889 330.056 50.3973C329.739 50.9057 329.437 51.6365 329.151 52.5897C327.594 57.6261 325.838 63.0199 323.884 68.7712C322.947 71.4721 322.129 73.9347 321.429 76.159C320.508 79.0664 318.872 83.92 316.52 90.7199C316.107 91.9274 315.448 92.8488 314.542 93.4843C313.637 94.1198 312.636 94.4376 311.539 94.4376C310.443 94.4376 309.426 94.1119 308.489 93.4605C307.568 92.825 306.884 91.9194 306.44 90.7437Z" fill="#0D0D0D"/>
<path d="M222.929 94.5326C220.022 94.5326 217.527 94.048 215.446 93.0789C213.365 92.1097 211.776 90.7196 210.68 88.9084C209.584 87.0972 209.035 84.9603 209.035 82.4978C209.035 80.1623 209.544 78.1446 210.561 76.4446C211.577 74.7446 213.095 73.2433 215.112 71.9405C217.13 70.6377 219.799 69.3429 223.12 68.056L226.742 66.6499C227.473 66.3639 228.577 65.935 230.055 65.363C231.548 64.7752 232.819 64.2906 233.868 63.9093C235.313 63.3691 236.298 62.678 236.823 61.836C237.363 60.9939 237.633 59.8818 237.633 58.4996V55.4015C237.633 53.0184 237.045 51.1357 235.87 49.7535C234.71 48.3713 232.811 47.6802 230.174 47.6802C228.347 47.6802 226.829 48.0376 225.622 48.7526C224.43 49.4675 223.803 50.524 223.739 51.9221C223.723 52.2717 223.731 52.8357 223.763 53.6142C223.795 54.1226 223.811 54.5754 223.811 54.9726C223.795 56.7202 223.422 58.2057 222.691 59.429C221.976 60.6524 221.046 61.5738 219.902 62.1935C218.759 62.7972 217.551 63.099 216.28 63.099C215.136 63.099 214.072 62.8528 213.087 62.3603C212.102 61.8678 211.307 61.1449 210.704 60.1916C210.116 59.2384 209.822 58.0945 209.822 56.7599C209.822 54.059 211.053 51.2787 213.516 48.4189C215.994 45.5433 219.124 43.1601 222.905 41.2695C226.686 39.3789 230.404 38.4336 234.058 38.4336C236.982 38.4336 239.706 39.0612 242.232 40.3163C244.759 41.5714 246.792 43.47 248.333 46.012C249.874 48.5381 250.629 51.6282 250.597 55.2824C250.55 59.9533 250.526 63.7425 250.526 66.6499C250.526 69.891 250.55 73.8231 250.597 78.4464C250.597 79.7015 250.82 80.6548 251.265 81.3062C251.725 81.9417 252.385 82.2595 253.243 82.2595C253.878 82.2595 254.569 82.1006 255.316 81.7828C255.602 81.7034 255.935 81.6637 256.317 81.6637C256.968 81.6637 257.572 81.8146 258.128 82.1165C258.684 82.4183 259.129 82.8393 259.463 83.3795C259.812 83.9197 259.987 84.5473 259.987 85.2622C259.987 86.0248 259.78 86.8271 259.367 87.6692C258.779 88.8448 257.953 89.949 256.889 90.9817C255.84 92.0303 254.569 92.8803 253.076 93.5317C251.598 94.199 249.978 94.5326 248.214 94.5326C246.562 94.5326 245.084 94.2387 243.782 93.6508C242.479 93.0789 241.287 92.213 240.207 91.0532C239.397 90.243 238.531 89.8378 237.609 89.8378C236.767 89.8378 235.814 90.1635 234.749 90.8149C233.367 91.6887 232.128 92.3878 231.032 92.9121C229.936 93.4364 228.736 93.8335 227.433 94.1036C226.13 94.3896 224.629 94.5326 222.929 94.5326ZM223.453 80.21C223.453 81.5922 223.859 82.6646 224.669 83.4272C225.495 84.1739 226.702 84.5473 228.291 84.5473C230.086 84.5473 231.691 84.1104 233.105 83.2365C234.535 82.3468 235.647 81.2347 236.441 79.9001C237.236 78.5656 237.633 77.2708 237.633 76.0156V74.0615C237.633 73.1559 237.474 72.4965 237.156 72.0835C236.855 71.6704 236.354 71.4638 235.655 71.4638C235.083 71.4638 234.344 71.6068 233.439 71.8928C229.673 73.1003 227.068 74.3951 225.622 75.7773C224.176 77.1595 223.453 78.6371 223.453 80.21Z" fill="#0D0D0D"/>
<path d="M137.753 93.2689C136.799 93.253 135.965 93.0306 135.25 92.6016C134.535 92.1885 133.987 91.6483 133.606 90.9811C133.225 90.3138 133.034 89.6147 133.034 88.8839C133.034 88.1213 133.24 87.4064 133.654 86.7391C134.082 86.0559 134.71 85.5237 135.536 85.1424C137.347 84.3957 138.634 83.6569 139.397 82.9261C140.175 82.1952 140.708 81.1387 140.994 79.7565C141.28 78.3584 141.446 76.158 141.494 73.1552C141.573 66.4824 141.613 60.1433 141.613 54.1378C141.613 49.7687 141.589 45.1931 141.542 40.4109C141.51 37.3446 141.359 35.176 141.089 33.905C140.835 32.634 140.31 31.633 139.516 30.9022C138.722 30.1555 137.236 29.1864 135.06 27.9948C134.376 27.5817 133.852 27.0574 133.487 26.4219C133.137 25.7864 132.962 25.1271 132.962 24.4439C132.962 23.7131 133.153 23.0299 133.534 22.3944C133.932 21.7589 134.503 21.2505 135.25 20.8692C136.013 20.472 136.918 20.2734 137.967 20.2734C142.161 20.3052 145.736 20.3211 148.691 20.3211C150.804 20.3211 154.816 20.3052 160.726 20.2734H162.418H163.181C171.839 20.2734 179.513 21.7192 186.202 24.6107C192.89 27.5023 198.109 31.7204 201.859 37.2652C205.608 42.7941 207.483 49.4112 207.483 57.1167C207.483 64.5521 205.727 70.9866 202.216 76.4201C198.705 81.8378 193.772 85.9844 187.417 88.8601C181.062 91.7357 173.69 93.1735 165.302 93.1735H164.372C162.529 93.1577 159.995 93.1497 156.77 93.1497C155.197 93.1497 150.669 93.1735 143.186 93.2212C140.58 93.253 138.769 93.2689 137.753 93.2689ZM155.078 35.3587C155.046 40.2521 155.03 43.787 155.03 45.9636C155.03 52.0962 155.07 59.7699 155.149 68.9847L155.173 73.2029C155.205 76.2533 155.555 78.557 156.222 80.114C156.905 81.6709 158.112 82.7751 159.844 83.4265C161.592 84.062 164.174 84.3559 167.589 84.3083C172.403 84.2447 176.653 83.1326 180.339 80.9719C184.025 78.8112 186.901 75.6337 188.966 71.4393C191.047 67.245 192.088 62.1769 192.088 56.2349C192.088 50.0547 190.912 44.9548 188.561 40.9352C186.21 36.9157 182.913 33.9447 178.671 32.0223C174.429 30.084 169.393 29.0672 163.562 28.9719H162.609C160.384 28.9719 158.748 29.1387 157.699 29.4723C156.651 29.806 155.952 30.37 155.602 31.1644C155.253 31.9587 155.078 33.1741 155.078 34.8106V35.3587Z" fill="#0D0D0D"/>
<path d="M55.5959 67.0234C71.2368 67.0234 85.6788 72.1813 97.3606 80.8799C100.567 83.2497 100.986 87.8775 98.4485 90.9443C88.2443 103.295 72.8539 111.186 55.5959 111.186C38.3382 111.185 22.9207 103.295 12.7444 90.9443C10.2352 87.8776 10.6253 83.2498 13.8313 80.8799C25.4852 72.1813 39.9552 67.0235 55.5959 67.0234ZM0.00317383 55.5938C0.00317383 23.3641 27.4371 -2.48106 60.2522 0.195312C84.9541 2.20269 105.614 20.9657 110.242 45.333C110.912 48.8459 111.218 52.2759 111.218 55.6494C111.19 64.2363 101.878 69.8399 94.3225 65.7139C82.8079 59.4408 69.6198 55.8721 55.5959 55.8721C41.5723 55.8722 28.3848 59.4409 16.8704 65.7139C9.39845 69.8121 0.031054 64.3194 0.00317383 55.7881V55.5938Z" fill="#0D0D0D"/>
</svg>
