<svg width="65" height="65" viewBox="0 0 65 65" fill="none" xmlns="http://www.w3.org/2000/svg">
<g filter="url(#filter0_d_10282_102452)">
<circle cx="32.3695" cy="32.3695" r="26.5524" transform="rotate(-14.5442 32.3695 32.3695)" fill="url(#paint0_radial_10282_102452)" shape-rendering="crispEdges"/>
<circle cx="32.3695" cy="32.3695" r="28.0524" transform="rotate(-14.5442 32.3695 32.3695)" stroke="white" stroke-width="3" shape-rendering="crispEdges"/>
</g>
<path d="M28.8652 18.8613C36.3514 16.9191 43.9353 21.3785 45.8775 28.8647C47.8196 36.3508 43.3603 43.9349 35.8742 45.8771C28.3881 47.8192 20.8041 43.3597 18.8618 35.8737C16.9196 28.3875 21.379 20.8036 28.8652 18.8613ZM32.9964 22.0531C32.7419 21.9998 32.5466 22.1704 32.5483 22.4105C32.5064 22.4818 32.5206 22.5371 32.55 22.6502L32.7543 23.4376C32.8127 23.663 33.0397 23.8436 33.2379 23.9134C38.0369 24.3508 41.5595 28.6641 41.0507 33.4211C40.8196 36.0039 39.429 38.2859 37.341 39.7287C37.1447 39.8992 37.0767 40.0976 37.1497 40.3796L37.354 41.167C37.4125 41.3925 37.5684 41.5324 37.8082 41.5294C37.8649 41.5147 37.9774 41.4855 38.0194 41.4141C42.9275 38.3384 44.3798 31.8949 41.3039 26.9853C39.4589 24.0416 36.355 22.2631 32.9964 22.0531ZM27.0163 23.545C26.9595 23.5598 26.8471 23.5891 26.8051 23.6604C21.8971 26.736 20.4452 33.1805 23.5208 38.0901C25.3514 40.9783 28.4001 42.7708 31.8139 42.9665C32.0686 43.0201 32.2637 42.8495 32.262 42.6092C32.3039 42.5378 32.2897 42.4827 32.2603 42.3695L32.056 41.5821C32.0117 41.4119 31.7848 41.2307 31.5866 41.1611C26.7878 40.7234 23.2652 36.4112 23.7741 31.6543C24.0051 29.0715 25.3955 26.7886 27.4835 25.3458C27.6799 25.1752 27.748 24.9771 27.6748 24.6949L27.4705 23.9074C27.4119 23.6822 27.2561 23.5419 27.0163 23.545ZM30.1971 25.8423C29.9718 25.901 29.8465 26.1139 29.8639 26.409L30.1996 27.7031C28.5699 28.3668 27.792 29.7696 28.157 31.177C28.6388 33.0342 29.9542 33.4748 32.3907 33.1426C34.0397 33.0146 34.6344 33.2206 34.8682 34.1211C35.1019 35.0221 34.4748 35.8454 33.4051 36.123C31.9424 36.5024 31.2751 36.0149 30.8873 35.2145C30.772 35.004 30.5733 34.9358 30.4046 34.9795L29.4489 35.2275C29.2237 35.2861 29.0979 35.4989 29.1561 35.7242L29.1708 35.7809C29.7615 37.1298 30.9249 37.9093 32.855 37.7085L33.2054 39.0593C33.2639 39.2846 33.4762 39.4099 33.7711 39.3927L34.6162 39.1735C34.8416 39.1148 34.966 38.9022 34.9485 38.607L34.598 37.2562C36.2118 36.5363 37.0322 35.0624 36.6381 33.5429C36.1271 31.5737 34.7699 31.2044 32.3329 31.5353C30.5861 31.7477 30.1309 31.3853 29.9266 30.5978C29.7227 29.8106 30.1553 29.1574 31.2801 28.8655C32.2929 28.6028 32.9444 28.7951 33.4443 29.5661C33.5449 29.72 33.7427 29.7882 33.9113 29.7446L34.8122 29.5109C35.0377 29.4524 35.1624 29.2399 35.1041 29.0145L35.0894 28.9577C34.5424 27.7778 33.2814 27.0838 31.9584 27.3073L31.6079 25.9566C31.5493 25.7311 31.3365 25.6058 31.0412 25.6233L30.1971 25.8423Z" fill="white"/>
<defs>
<filter id="filter0_d_10282_102452" x="2.80994" y="2.81014" width="59.3693" height="59.3691" filterUnits="userSpaceOnUse" color-interpolation-filters="sRGB">
<feFlood flood-opacity="0" result="BackgroundImageFix"/>
<feColorMatrix in="SourceAlpha" type="matrix" values="0 0 0 0 0 0 0 0 0 0 0 0 0 0 0 0 0 0 127 0" result="hardAlpha"/>
<feOffset dx="0.25" dy="0.25"/>
<feComposite in2="hardAlpha" operator="out"/>
<feColorMatrix type="matrix" values="0 0 0 0 0 0 0 0 0 0 0 0 0 0 0 0 0 0 0.25 0"/>
<feBlend mode="normal" in2="BackgroundImageFix" result="effect1_dropShadow_10282_102452"/>
<feBlend mode="normal" in="SourceGraphic" in2="effect1_dropShadow_10282_102452" result="shape"/>
</filter>
<radialGradient id="paint0_radial_10282_102452" cx="0" cy="0" r="1" gradientTransform="matrix(54.5621 52.6298 -87.7984 61.6321 9.90055 11.0439)" gradientUnits="userSpaceOnUse">
<stop stop-color="#398BE5"/>
<stop offset="0.29" stop-color="#2E88E9"/>
<stop offset="0.505" stop-color="#4C9EF8"/>
<stop offset="0.795" stop-color="#589EEA" stop-opacity="0.537255"/>
<stop offset="1" stop-color="#2775CA" stop-opacity="0.537255"/>
</radialGradient>
</defs>
</svg>
