<svg width="32" height="32" viewBox="0 0 32 32" fill="none" xmlns="http://www.w3.org/2000/svg">
<g clip-path="url(#clip0_10288_5216)">
<g filter="url(#filter0_d_10288_5216)">
<circle cx="16" cy="15.9448" r="14.4" fill="url(#paint0_radial_10288_5216)" shape-rendering="crispEdges"/>
<circle cx="16" cy="15.9448" r="15.2135" stroke="white" stroke-width="1.62697" shape-rendering="crispEdges"/>
</g>
<path d="M15.3656 8.40312C19.5451 8.05149 23.1903 11.1306 23.542 15.3101C23.8935 19.4895 20.8143 23.1347 16.635 23.4865C12.4556 23.8383 8.81054 20.7589 8.45861 16.5795C8.10687 12.4 11.1861 8.75487 15.3656 8.40312ZM17.2806 10.4882C17.1496 10.4364 17.0292 10.5092 17.008 10.6375C16.9792 10.6718 16.9822 10.7034 16.9875 10.7666L17.0245 11.2065C17.0353 11.3322 17.1403 11.4495 17.2398 11.5049C19.7646 12.1789 21.2514 14.8071 20.5433 17.303C20.183 18.6621 19.2309 19.7543 17.9828 20.3341C17.8623 20.4072 17.8073 20.5077 17.8206 20.6652L17.8575 21.1041C17.8681 21.23 17.9391 21.3199 18.0675 21.3403C18.0992 21.3376 18.1614 21.3316 18.1903 21.2976C21.0959 20.1037 22.463 16.7927 21.2691 13.8863C20.5528 12.1436 19.0567 10.9083 17.2806 10.4882ZM13.948 10.7373C13.9162 10.7399 13.8531 10.7458 13.8242 10.78C10.9189 11.9741 9.55154 15.2851 10.7454 18.1913C11.459 19.9029 12.9244 21.1407 14.7312 21.5583C14.8623 21.6103 14.9826 21.5373 15.0039 21.409C15.0329 21.3746 15.0297 21.3432 15.0244 21.2798L14.9873 20.84C14.9792 20.7451 14.8751 20.628 14.7757 20.5726C12.2508 19.8987 10.7631 17.2706 11.4712 14.7746C11.8314 13.4153 12.7843 12.3223 14.0326 11.7425C14.153 11.6693 14.2072 11.5698 14.1939 11.4124L14.1569 10.9725C14.1462 10.8468 14.0762 10.7577 13.948 10.7373ZM15.4371 12.2564C15.3113 12.2672 15.2249 12.3703 15.2072 12.5296L15.268 13.2516C14.3363 13.457 13.7912 14.1352 13.8571 14.9208C13.9443 15.9576 14.6075 16.3137 15.9401 16.3595C16.8333 16.4423 17.132 16.6074 17.1744 17.1102C17.2168 17.6131 16.8065 17.9956 16.2095 18.046C15.3931 18.1146 15.0807 17.7933 14.9467 17.33C14.9045 17.2068 14.8042 17.1519 14.71 17.1599L14.1767 17.2047C14.051 17.2155 13.9639 17.3176 13.9743 17.4432L13.977 17.4754C14.1691 18.2505 14.72 18.7738 15.7699 18.8435L15.8334 19.5977C15.8441 19.7234 15.9464 19.8098 16.1056 19.8276L16.5766 19.788C16.7025 19.7774 16.7887 19.6751 16.8065 19.5158L16.7431 18.7616C17.6717 18.5247 18.2448 17.8118 18.1735 16.9634C18.0809 15.8639 17.3896 15.5417 16.0565 15.4952C15.1037 15.4485 14.8941 15.2135 14.8571 14.7739C14.8202 14.3345 15.1106 14.0256 15.7383 13.9725C16.3039 13.9249 16.6346 14.0869 16.8312 14.545C16.8707 14.6363 16.9702 14.6908 17.0643 14.6832L17.5674 14.6408C17.6932 14.6303 17.7802 14.5282 17.7698 14.4023L17.7671 14.3702C17.5829 13.6893 16.9715 13.2036 16.2438 13.2019L16.1803 12.4477C16.1697 12.3217 16.0675 12.2345 15.908 12.2168L15.4371 12.2564Z" fill="white"/>
</g>
<defs>
<filter id="filter0_d_10288_5216" x="-0.0269775" y="-0.0821857" width="32.1895" height="32.1895" filterUnits="userSpaceOnUse" color-interpolation-filters="sRGB">
<feFlood flood-opacity="0" result="BackgroundImageFix"/>
<feColorMatrix in="SourceAlpha" type="matrix" values="0 0 0 0 0 0 0 0 0 0 0 0 0 0 0 0 0 0 127 0" result="hardAlpha"/>
<feOffset dx="0.135581" dy="0.135581"/>
<feComposite in2="hardAlpha" operator="out"/>
<feColorMatrix type="matrix" values="0 0 0 0 0 0 0 0 0 0 0 0 0 0 0 0 0 0 0.25 0"/>
<feBlend mode="normal" in2="BackgroundImageFix" result="effect1_dropShadow_10288_5216"/>
<feBlend mode="normal" in="SourceGraphic" in2="effect1_dropShadow_10288_5216" result="shape"/>
</filter>
<radialGradient id="paint0_radial_10288_5216" cx="0" cy="0" r="1" gradientTransform="matrix(29.5903 28.5424 -47.6151 33.4245 3.81451 4.37937)" gradientUnits="userSpaceOnUse">
<stop stop-color="#398BE5"/>
<stop offset="0.29" stop-color="#2E88E9"/>
<stop offset="0.505" stop-color="#4C9EF8"/>
<stop offset="0.795" stop-color="#589EEA" stop-opacity="0.537255"/>
<stop offset="1" stop-color="#2775CA" stop-opacity="0.537255"/>
</radialGradient>
<clipPath id="clip0_10288_5216">
<rect width="32" height="32" rx="16" fill="white"/>
</clipPath>
</defs>
</svg>
