<svg width="33" height="33" viewBox="0 0 33 33" fill="none" xmlns="http://www.w3.org/2000/svg">
<g filter="url(#filter0_d_10288_5215)">
<circle cx="16.2" cy="16.1709" r="14.6667" fill="url(#paint0_radial_10288_5215)"/>
<circle cx="16.2" cy="16.1709" r="15.4188" stroke="white" stroke-width="1.50427"/>
</g>
<g clip-path="url(#clip0_10288_5215)">
<path d="M11.1528 19.6036C11.2361 19.5029 11.3575 19.4372 11.4916 19.4245L23.6565 18.2708C23.8788 18.2497 24.0154 18.5075 23.8731 18.6795L21.698 21.3105C21.6147 21.4112 21.4933 21.4769 21.3592 21.4896L9.19431 22.6433C8.97201 22.6644 8.83542 22.4066 8.97766 22.2346L11.1528 19.6036Z" fill="white"/>
<path d="M10.302 10.6314C10.3891 10.5303 10.5105 10.4646 10.6408 10.4523L22.8057 9.2986C23.028 9.27751 23.1645 9.53526 23.0223 9.7073L20.8471 12.3383C20.7639 12.439 20.6425 12.5046 20.5083 12.5174L8.34348 13.671C8.12118 13.6921 7.98459 13.4344 8.12683 13.2623L10.302 10.6314Z" fill="white"/>
<path d="M21.0154 14.1128C20.9147 14.0295 20.7832 13.9878 20.649 14.0006L8.48415 15.1542C8.26185 15.1753 8.17615 15.4542 8.34819 15.5964L10.9792 17.7716C11.0799 17.8548 11.2114 17.8965 11.3456 17.8838L23.5104 16.7301C23.7327 16.709 23.8184 16.4302 23.6464 16.2879L21.0154 14.1128Z" fill="white"/>
</g>
<defs>
<filter id="filter0_d_10288_5215" x="0.0290527" y="0" width="32.4829" height="32.4829" filterUnits="userSpaceOnUse" color-interpolation-filters="sRGB">
<feFlood flood-opacity="0" result="BackgroundImageFix"/>
<feColorMatrix in="SourceAlpha" type="matrix" values="0 0 0 0 0 0 0 0 0 0 0 0 0 0 0 0 0 0 127 0" result="hardAlpha"/>
<feOffset dx="0.141026" dy="0.141026"/>
<feComposite in2="hardAlpha" operator="out"/>
<feColorMatrix type="matrix" values="0 0 0 0 0 0 0 0 0 0 0 0 0 0 0 0 0 0 0.25 0"/>
<feBlend mode="normal" in2="BackgroundImageFix" result="effect1_dropShadow_10288_5215"/>
<feBlend mode="normal" in="SourceGraphic" in2="effect1_dropShadow_10288_5215" result="shape"/>
</filter>
<radialGradient id="paint0_radial_10288_5215" cx="0" cy="0" r="1" gradientTransform="matrix(30.1383 29.0709 -48.4969 34.0435 3.78887 4.39135)" gradientUnits="userSpaceOnUse">
<stop stop-color="#728DC4"/>
<stop offset="0.29" stop-color="#9B53DB"/>
<stop offset="0.505" stop-color="#63A8BD"/>
<stop offset="0.795" stop-color="#8D62D8"/>
<stop offset="1" stop-color="#6DE8AA"/>
</radialGradient>
<clipPath id="clip0_10288_5215">
<rect width="15.3109" height="12" fill="white" transform="translate(7.81226 10.7205) rotate(-5.41755)"/>
</clipPath>
</defs>
</svg>
